G04 #@! TF.GenerationSoftware,KiCad,Pcbnew,(5.1.0)-1*
G04 #@! TF.CreationDate,2019-05-18T16:03:49-06:00*
G04 #@! TF.ProjectId,Tension,54656e73-696f-46e2-9e6b-696361645f70,rev?*
G04 #@! TF.SameCoordinates,Original*
G04 #@! TF.FileFunction,Soldermask,Top*
G04 #@! TF.FilePolarity,Negative*
%FSLAX46Y46*%
G04 Gerber Fmt 4.6, Leading zero omitted, Abs format (unit mm)*
G04 Created by KiCad (PCBNEW (5.1.0)-1) date 2019-05-18 16:03:49*
%MOMM*%
%LPD*%
G04 APERTURE LIST*
%ADD10C,0.100000*%
G04 APERTURE END LIST*
D10*
G36*
X167879393Y-74349304D02*
G01*
X168116101Y-74447352D01*
X168116103Y-74447353D01*
X168329135Y-74589696D01*
X168510304Y-74770865D01*
X168643913Y-74970826D01*
X168652648Y-74983899D01*
X168750696Y-75220607D01*
X168800680Y-75471893D01*
X168800680Y-75728107D01*
X168750696Y-75979393D01*
X168652648Y-76216101D01*
X168652647Y-76216103D01*
X168510304Y-76429135D01*
X168329135Y-76610304D01*
X168116103Y-76752647D01*
X168116102Y-76752648D01*
X168116101Y-76752648D01*
X167879393Y-76850696D01*
X167628107Y-76900680D01*
X167371893Y-76900680D01*
X167120607Y-76850696D01*
X166883899Y-76752648D01*
X166883898Y-76752648D01*
X166883897Y-76752647D01*
X166670865Y-76610304D01*
X166489696Y-76429135D01*
X166347353Y-76216103D01*
X166347352Y-76216101D01*
X166249304Y-75979393D01*
X166199320Y-75728107D01*
X166199320Y-75471893D01*
X166249304Y-75220607D01*
X166347352Y-74983899D01*
X166356087Y-74970826D01*
X166489696Y-74770865D01*
X166670865Y-74589696D01*
X166883897Y-74447353D01*
X166883899Y-74447352D01*
X167120607Y-74349304D01*
X167371893Y-74299320D01*
X167628107Y-74299320D01*
X167879393Y-74349304D01*
X167879393Y-74349304D01*
G37*
G36*
X175401793Y-73008777D02*
G01*
X175552372Y-73038729D01*
X175617374Y-73065654D01*
X175834611Y-73155636D01*
X176088621Y-73325360D01*
X176304640Y-73541379D01*
X176474364Y-73795389D01*
X176542541Y-73959983D01*
X176586261Y-74065532D01*
X176591271Y-74077629D01*
X176650870Y-74377251D01*
X176650870Y-74682749D01*
X176633342Y-74770865D01*
X176593447Y-74971435D01*
X176591271Y-74982371D01*
X176474364Y-75264611D01*
X176304640Y-75518621D01*
X176088621Y-75734640D01*
X175834611Y-75904364D01*
X175669279Y-75972846D01*
X175552372Y-76021271D01*
X175452497Y-76041137D01*
X175252749Y-76080870D01*
X174947251Y-76080870D01*
X174747503Y-76041137D01*
X174647628Y-76021271D01*
X174530721Y-75972846D01*
X174365389Y-75904364D01*
X174111379Y-75734640D01*
X173895360Y-75518621D01*
X173725636Y-75264611D01*
X173608729Y-74982371D01*
X173606554Y-74971435D01*
X173566658Y-74770865D01*
X173549130Y-74682749D01*
X173549130Y-74377251D01*
X173608729Y-74077629D01*
X173613740Y-74065532D01*
X173657459Y-73959983D01*
X173725636Y-73795389D01*
X173895360Y-73541379D01*
X174111379Y-73325360D01*
X174365389Y-73155636D01*
X174582626Y-73065654D01*
X174647628Y-73038729D01*
X174798207Y-73008777D01*
X174947251Y-72979130D01*
X175252749Y-72979130D01*
X175401793Y-73008777D01*
X175401793Y-73008777D01*
G37*
G36*
X147584468Y-73903565D02*
G01*
X147623138Y-73915296D01*
X147658777Y-73934346D01*
X147690017Y-73959983D01*
X147715654Y-73991223D01*
X147734704Y-74026862D01*
X147746435Y-74065532D01*
X147751000Y-74111888D01*
X147751000Y-74763112D01*
X147746435Y-74809468D01*
X147734704Y-74848138D01*
X147715654Y-74883777D01*
X147690017Y-74915017D01*
X147658777Y-74940654D01*
X147623138Y-74959704D01*
X147584468Y-74971435D01*
X147538112Y-74976000D01*
X146461888Y-74976000D01*
X146415532Y-74971435D01*
X146376862Y-74959704D01*
X146341223Y-74940654D01*
X146309983Y-74915017D01*
X146284346Y-74883777D01*
X146265296Y-74848138D01*
X146253565Y-74809468D01*
X146249000Y-74763112D01*
X146249000Y-74111888D01*
X146253565Y-74065532D01*
X146265296Y-74026862D01*
X146284346Y-73991223D01*
X146309983Y-73959983D01*
X146341223Y-73934346D01*
X146376862Y-73915296D01*
X146415532Y-73903565D01*
X146461888Y-73899000D01*
X147538112Y-73899000D01*
X147584468Y-73903565D01*
X147584468Y-73903565D01*
G37*
G36*
X156434468Y-72253565D02*
G01*
X156473138Y-72265296D01*
X156508777Y-72284346D01*
X156540017Y-72309983D01*
X156565654Y-72341223D01*
X156584704Y-72376862D01*
X156596435Y-72415532D01*
X156601000Y-72461888D01*
X156601000Y-73538112D01*
X156596435Y-73584468D01*
X156584704Y-73623138D01*
X156565654Y-73658777D01*
X156540017Y-73690017D01*
X156508777Y-73715654D01*
X156473138Y-73734704D01*
X156434468Y-73746435D01*
X156388112Y-73751000D01*
X155736888Y-73751000D01*
X155690532Y-73746435D01*
X155651862Y-73734704D01*
X155616223Y-73715654D01*
X155584983Y-73690017D01*
X155559346Y-73658777D01*
X155540296Y-73623138D01*
X155528565Y-73584468D01*
X155524000Y-73538112D01*
X155524000Y-72461888D01*
X155528565Y-72415532D01*
X155540296Y-72376862D01*
X155559346Y-72341223D01*
X155584983Y-72309983D01*
X155616223Y-72284346D01*
X155651862Y-72265296D01*
X155690532Y-72253565D01*
X155736888Y-72249000D01*
X156388112Y-72249000D01*
X156434468Y-72253565D01*
X156434468Y-72253565D01*
G37*
G36*
X152809468Y-72253565D02*
G01*
X152848138Y-72265296D01*
X152883777Y-72284346D01*
X152915017Y-72309983D01*
X152940654Y-72341223D01*
X152959704Y-72376862D01*
X152971435Y-72415532D01*
X152976000Y-72461888D01*
X152976000Y-73538112D01*
X152971435Y-73584468D01*
X152959704Y-73623138D01*
X152940654Y-73658777D01*
X152915017Y-73690017D01*
X152883777Y-73715654D01*
X152848138Y-73734704D01*
X152809468Y-73746435D01*
X152763112Y-73751000D01*
X152111888Y-73751000D01*
X152065532Y-73746435D01*
X152026862Y-73734704D01*
X151991223Y-73715654D01*
X151959983Y-73690017D01*
X151934346Y-73658777D01*
X151915296Y-73623138D01*
X151903565Y-73584468D01*
X151899000Y-73538112D01*
X151899000Y-72461888D01*
X151903565Y-72415532D01*
X151915296Y-72376862D01*
X151934346Y-72341223D01*
X151959983Y-72309983D01*
X151991223Y-72284346D01*
X152026862Y-72265296D01*
X152065532Y-72253565D01*
X152111888Y-72249000D01*
X152763112Y-72249000D01*
X152809468Y-72253565D01*
X152809468Y-72253565D01*
G37*
G36*
X150934468Y-72253565D02*
G01*
X150973138Y-72265296D01*
X151008777Y-72284346D01*
X151040017Y-72309983D01*
X151065654Y-72341223D01*
X151084704Y-72376862D01*
X151096435Y-72415532D01*
X151101000Y-72461888D01*
X151101000Y-73538112D01*
X151096435Y-73584468D01*
X151084704Y-73623138D01*
X151065654Y-73658777D01*
X151040017Y-73690017D01*
X151008777Y-73715654D01*
X150973138Y-73734704D01*
X150934468Y-73746435D01*
X150888112Y-73751000D01*
X150236888Y-73751000D01*
X150190532Y-73746435D01*
X150151862Y-73734704D01*
X150116223Y-73715654D01*
X150084983Y-73690017D01*
X150059346Y-73658777D01*
X150040296Y-73623138D01*
X150028565Y-73584468D01*
X150024000Y-73538112D01*
X150024000Y-72461888D01*
X150028565Y-72415532D01*
X150040296Y-72376862D01*
X150059346Y-72341223D01*
X150084983Y-72309983D01*
X150116223Y-72284346D01*
X150151862Y-72265296D01*
X150190532Y-72253565D01*
X150236888Y-72249000D01*
X150888112Y-72249000D01*
X150934468Y-72253565D01*
X150934468Y-72253565D01*
G37*
G36*
X158309468Y-72253565D02*
G01*
X158348138Y-72265296D01*
X158383777Y-72284346D01*
X158415017Y-72309983D01*
X158440654Y-72341223D01*
X158459704Y-72376862D01*
X158471435Y-72415532D01*
X158476000Y-72461888D01*
X158476000Y-73538112D01*
X158471435Y-73584468D01*
X158459704Y-73623138D01*
X158440654Y-73658777D01*
X158415017Y-73690017D01*
X158383777Y-73715654D01*
X158348138Y-73734704D01*
X158309468Y-73746435D01*
X158263112Y-73751000D01*
X157611888Y-73751000D01*
X157565532Y-73746435D01*
X157526862Y-73734704D01*
X157491223Y-73715654D01*
X157459983Y-73690017D01*
X157434346Y-73658777D01*
X157415296Y-73623138D01*
X157403565Y-73584468D01*
X157399000Y-73538112D01*
X157399000Y-72461888D01*
X157403565Y-72415532D01*
X157415296Y-72376862D01*
X157434346Y-72341223D01*
X157459983Y-72309983D01*
X157491223Y-72284346D01*
X157526862Y-72265296D01*
X157565532Y-72253565D01*
X157611888Y-72249000D01*
X158263112Y-72249000D01*
X158309468Y-72253565D01*
X158309468Y-72253565D01*
G37*
G36*
X147584468Y-72028565D02*
G01*
X147623138Y-72040296D01*
X147658777Y-72059346D01*
X147690017Y-72084983D01*
X147715654Y-72116223D01*
X147734704Y-72151862D01*
X147746435Y-72190532D01*
X147751000Y-72236888D01*
X147751000Y-72888112D01*
X147746435Y-72934468D01*
X147734704Y-72973138D01*
X147715654Y-73008777D01*
X147690017Y-73040017D01*
X147658777Y-73065654D01*
X147623138Y-73084704D01*
X147584468Y-73096435D01*
X147538112Y-73101000D01*
X146461888Y-73101000D01*
X146415532Y-73096435D01*
X146376862Y-73084704D01*
X146341223Y-73065654D01*
X146309983Y-73040017D01*
X146284346Y-73008777D01*
X146265296Y-72973138D01*
X146253565Y-72934468D01*
X146249000Y-72888112D01*
X146249000Y-72236888D01*
X146253565Y-72190532D01*
X146265296Y-72151862D01*
X146284346Y-72116223D01*
X146309983Y-72084983D01*
X146341223Y-72059346D01*
X146376862Y-72040296D01*
X146415532Y-72028565D01*
X146461888Y-72024000D01*
X147538112Y-72024000D01*
X147584468Y-72028565D01*
X147584468Y-72028565D01*
G37*
G36*
X175449930Y-69208352D02*
G01*
X175552372Y-69228729D01*
X175648638Y-69268604D01*
X175834611Y-69345636D01*
X176088621Y-69515360D01*
X176304640Y-69731379D01*
X176474364Y-69985389D01*
X176507560Y-70065532D01*
X176571334Y-70219495D01*
X176591271Y-70267629D01*
X176650870Y-70567251D01*
X176650870Y-70872749D01*
X176633573Y-70959704D01*
X176591271Y-71172372D01*
X176556836Y-71255505D01*
X176474364Y-71454611D01*
X176304640Y-71708621D01*
X176088621Y-71924640D01*
X175834611Y-72094364D01*
X175715592Y-72143663D01*
X175552372Y-72211271D01*
X175452497Y-72231137D01*
X175252749Y-72270870D01*
X174947251Y-72270870D01*
X174747503Y-72231137D01*
X174647628Y-72211271D01*
X174484408Y-72143663D01*
X174365389Y-72094364D01*
X174111379Y-71924640D01*
X173895360Y-71708621D01*
X173725636Y-71454611D01*
X173643164Y-71255505D01*
X173608729Y-71172372D01*
X173566427Y-70959704D01*
X173549130Y-70872749D01*
X173549130Y-70567251D01*
X173608729Y-70267629D01*
X173628667Y-70219495D01*
X173692440Y-70065532D01*
X173725636Y-69985389D01*
X173895360Y-69731379D01*
X174111379Y-69515360D01*
X174365389Y-69345636D01*
X174551362Y-69268604D01*
X174647628Y-69228729D01*
X174750070Y-69208352D01*
X174947251Y-69169130D01*
X175252749Y-69169130D01*
X175449930Y-69208352D01*
X175449930Y-69208352D01*
G37*
G36*
X163784468Y-70203565D02*
G01*
X163823138Y-70215296D01*
X163858777Y-70234346D01*
X163890017Y-70259983D01*
X163915654Y-70291223D01*
X163934704Y-70326862D01*
X163946435Y-70365532D01*
X163951000Y-70411888D01*
X163951000Y-71063112D01*
X163946435Y-71109468D01*
X163934704Y-71148138D01*
X163915654Y-71183777D01*
X163890017Y-71215017D01*
X163858777Y-71240654D01*
X163823138Y-71259704D01*
X163784468Y-71271435D01*
X163738112Y-71276000D01*
X162661888Y-71276000D01*
X162615532Y-71271435D01*
X162576862Y-71259704D01*
X162541223Y-71240654D01*
X162509983Y-71215017D01*
X162484346Y-71183777D01*
X162465296Y-71148138D01*
X162453565Y-71109468D01*
X162449000Y-71063112D01*
X162449000Y-70411888D01*
X162453565Y-70365532D01*
X162465296Y-70326862D01*
X162484346Y-70291223D01*
X162509983Y-70259983D01*
X162541223Y-70234346D01*
X162576862Y-70215296D01*
X162615532Y-70203565D01*
X162661888Y-70199000D01*
X163738112Y-70199000D01*
X163784468Y-70203565D01*
X163784468Y-70203565D01*
G37*
G36*
X143584468Y-69903565D02*
G01*
X143623138Y-69915296D01*
X143658777Y-69934346D01*
X143690017Y-69959983D01*
X143715654Y-69991223D01*
X143734704Y-70026862D01*
X143746435Y-70065532D01*
X143751000Y-70111888D01*
X143751000Y-70763112D01*
X143746435Y-70809468D01*
X143734704Y-70848138D01*
X143715654Y-70883777D01*
X143690017Y-70915017D01*
X143658777Y-70940654D01*
X143623138Y-70959704D01*
X143584468Y-70971435D01*
X143538112Y-70976000D01*
X142461888Y-70976000D01*
X142415532Y-70971435D01*
X142376862Y-70959704D01*
X142341223Y-70940654D01*
X142309983Y-70915017D01*
X142284346Y-70883777D01*
X142265296Y-70848138D01*
X142253565Y-70809468D01*
X142249000Y-70763112D01*
X142249000Y-70111888D01*
X142253565Y-70065532D01*
X142265296Y-70026862D01*
X142284346Y-69991223D01*
X142309983Y-69959983D01*
X142341223Y-69934346D01*
X142376862Y-69915296D01*
X142415532Y-69903565D01*
X142461888Y-69899000D01*
X143538112Y-69899000D01*
X143584468Y-69903565D01*
X143584468Y-69903565D01*
G37*
G36*
X155626000Y-69591000D02*
G01*
X153974000Y-69591000D01*
X153974000Y-67009000D01*
X155626000Y-67009000D01*
X155626000Y-69591000D01*
X155626000Y-69591000D01*
G37*
G36*
X153626000Y-69501000D02*
G01*
X152874000Y-69501000D01*
X152874000Y-67099000D01*
X153626000Y-67099000D01*
X153626000Y-69501000D01*
X153626000Y-69501000D01*
G37*
G36*
X156726000Y-69501000D02*
G01*
X155974000Y-69501000D01*
X155974000Y-67099000D01*
X156726000Y-67099000D01*
X156726000Y-69501000D01*
X156726000Y-69501000D01*
G37*
G36*
X149418604Y-67578347D02*
G01*
X149455144Y-67589432D01*
X149488821Y-67607433D01*
X149518341Y-67631659D01*
X149542567Y-67661179D01*
X149560568Y-67694856D01*
X149571653Y-67731396D01*
X149576000Y-67775538D01*
X149576000Y-69224462D01*
X149571653Y-69268604D01*
X149560568Y-69305144D01*
X149542567Y-69338821D01*
X149518341Y-69368341D01*
X149488821Y-69392567D01*
X149455144Y-69410568D01*
X149418604Y-69421653D01*
X149374462Y-69426000D01*
X148425538Y-69426000D01*
X148381396Y-69421653D01*
X148344856Y-69410568D01*
X148311179Y-69392567D01*
X148281659Y-69368341D01*
X148257433Y-69338821D01*
X148239432Y-69305144D01*
X148228347Y-69268604D01*
X148224000Y-69224462D01*
X148224000Y-67775538D01*
X148228347Y-67731396D01*
X148239432Y-67694856D01*
X148257433Y-67661179D01*
X148281659Y-67631659D01*
X148311179Y-67607433D01*
X148344856Y-67589432D01*
X148381396Y-67578347D01*
X148425538Y-67574000D01*
X149374462Y-67574000D01*
X149418604Y-67578347D01*
X149418604Y-67578347D01*
G37*
G36*
X146618604Y-67578347D02*
G01*
X146655144Y-67589432D01*
X146688821Y-67607433D01*
X146718341Y-67631659D01*
X146742567Y-67661179D01*
X146760568Y-67694856D01*
X146771653Y-67731396D01*
X146776000Y-67775538D01*
X146776000Y-69224462D01*
X146771653Y-69268604D01*
X146760568Y-69305144D01*
X146742567Y-69338821D01*
X146718341Y-69368341D01*
X146688821Y-69392567D01*
X146655144Y-69410568D01*
X146618604Y-69421653D01*
X146574462Y-69426000D01*
X145625538Y-69426000D01*
X145581396Y-69421653D01*
X145544856Y-69410568D01*
X145511179Y-69392567D01*
X145481659Y-69368341D01*
X145457433Y-69338821D01*
X145439432Y-69305144D01*
X145428347Y-69268604D01*
X145424000Y-69224462D01*
X145424000Y-67775538D01*
X145428347Y-67731396D01*
X145439432Y-67694856D01*
X145457433Y-67661179D01*
X145481659Y-67631659D01*
X145511179Y-67607433D01*
X145544856Y-67589432D01*
X145581396Y-67578347D01*
X145625538Y-67574000D01*
X146574462Y-67574000D01*
X146618604Y-67578347D01*
X146618604Y-67578347D01*
G37*
G36*
X163784468Y-68328565D02*
G01*
X163823138Y-68340296D01*
X163858777Y-68359346D01*
X163890017Y-68384983D01*
X163915654Y-68416223D01*
X163934704Y-68451862D01*
X163946435Y-68490532D01*
X163951000Y-68536888D01*
X163951000Y-69188112D01*
X163946435Y-69234468D01*
X163934704Y-69273138D01*
X163915654Y-69308777D01*
X163890017Y-69340017D01*
X163858777Y-69365654D01*
X163823138Y-69384704D01*
X163784468Y-69396435D01*
X163738112Y-69401000D01*
X162661888Y-69401000D01*
X162615532Y-69396435D01*
X162576862Y-69384704D01*
X162541223Y-69365654D01*
X162509983Y-69340017D01*
X162484346Y-69308777D01*
X162465296Y-69273138D01*
X162453565Y-69234468D01*
X162449000Y-69188112D01*
X162449000Y-68536888D01*
X162453565Y-68490532D01*
X162465296Y-68451862D01*
X162484346Y-68416223D01*
X162509983Y-68384983D01*
X162541223Y-68359346D01*
X162576862Y-68340296D01*
X162615532Y-68328565D01*
X162661888Y-68324000D01*
X163738112Y-68324000D01*
X163784468Y-68328565D01*
X163784468Y-68328565D01*
G37*
G36*
X143584468Y-68028565D02*
G01*
X143623138Y-68040296D01*
X143658777Y-68059346D01*
X143690017Y-68084983D01*
X143715654Y-68116223D01*
X143734704Y-68151862D01*
X143746435Y-68190532D01*
X143751000Y-68236888D01*
X143751000Y-68888112D01*
X143746435Y-68934468D01*
X143734704Y-68973138D01*
X143715654Y-69008777D01*
X143690017Y-69040017D01*
X143658777Y-69065654D01*
X143623138Y-69084704D01*
X143584468Y-69096435D01*
X143538112Y-69101000D01*
X142461888Y-69101000D01*
X142415532Y-69096435D01*
X142376862Y-69084704D01*
X142341223Y-69065654D01*
X142309983Y-69040017D01*
X142284346Y-69008777D01*
X142265296Y-68973138D01*
X142253565Y-68934468D01*
X142249000Y-68888112D01*
X142249000Y-68236888D01*
X142253565Y-68190532D01*
X142265296Y-68151862D01*
X142284346Y-68116223D01*
X142309983Y-68084983D01*
X142341223Y-68059346D01*
X142376862Y-68040296D01*
X142415532Y-68028565D01*
X142461888Y-68024000D01*
X143538112Y-68024000D01*
X143584468Y-68028565D01*
X143584468Y-68028565D01*
G37*
G36*
X168584468Y-67403565D02*
G01*
X168623138Y-67415296D01*
X168658777Y-67434346D01*
X168690017Y-67459983D01*
X168715654Y-67491223D01*
X168734704Y-67526862D01*
X168746435Y-67565532D01*
X168751000Y-67611888D01*
X168751000Y-68263112D01*
X168746435Y-68309468D01*
X168734704Y-68348138D01*
X168715654Y-68383777D01*
X168690017Y-68415017D01*
X168658777Y-68440654D01*
X168623138Y-68459704D01*
X168584468Y-68471435D01*
X168538112Y-68476000D01*
X167461888Y-68476000D01*
X167415532Y-68471435D01*
X167376862Y-68459704D01*
X167341223Y-68440654D01*
X167309983Y-68415017D01*
X167284346Y-68383777D01*
X167265296Y-68348138D01*
X167253565Y-68309468D01*
X167249000Y-68263112D01*
X167249000Y-67611888D01*
X167253565Y-67565532D01*
X167265296Y-67526862D01*
X167284346Y-67491223D01*
X167309983Y-67459983D01*
X167341223Y-67434346D01*
X167376862Y-67415296D01*
X167415532Y-67403565D01*
X167461888Y-67399000D01*
X168538112Y-67399000D01*
X168584468Y-67403565D01*
X168584468Y-67403565D01*
G37*
G36*
X175452497Y-65398863D02*
G01*
X175552372Y-65418729D01*
X175669279Y-65467154D01*
X175834611Y-65535636D01*
X176088621Y-65705360D01*
X176304640Y-65921379D01*
X176474364Y-66175389D01*
X176539130Y-66331750D01*
X176581678Y-66434468D01*
X176591271Y-66457629D01*
X176650870Y-66757251D01*
X176650870Y-67062749D01*
X176591271Y-67362371D01*
X176474364Y-67644611D01*
X176304640Y-67898621D01*
X176088621Y-68114640D01*
X175834611Y-68284364D01*
X175699578Y-68340296D01*
X175552372Y-68401271D01*
X175483266Y-68415017D01*
X175252749Y-68460870D01*
X174947251Y-68460870D01*
X174716734Y-68415017D01*
X174647628Y-68401271D01*
X174500422Y-68340296D01*
X174365389Y-68284364D01*
X174111379Y-68114640D01*
X173895360Y-67898621D01*
X173725636Y-67644611D01*
X173608729Y-67362371D01*
X173549130Y-67062749D01*
X173549130Y-66757251D01*
X173608729Y-66457629D01*
X173618323Y-66434468D01*
X173660870Y-66331750D01*
X173725636Y-66175389D01*
X173895360Y-65921379D01*
X174111379Y-65705360D01*
X174365389Y-65535636D01*
X174530721Y-65467154D01*
X174647628Y-65418729D01*
X174747503Y-65398863D01*
X174947251Y-65359130D01*
X175252749Y-65359130D01*
X175452497Y-65398863D01*
X175452497Y-65398863D01*
G37*
G36*
X163784468Y-65903565D02*
G01*
X163823138Y-65915296D01*
X163858777Y-65934346D01*
X163890017Y-65959983D01*
X163915654Y-65991223D01*
X163934704Y-66026862D01*
X163946435Y-66065532D01*
X163951000Y-66111888D01*
X163951000Y-66763112D01*
X163946435Y-66809468D01*
X163934704Y-66848138D01*
X163915654Y-66883777D01*
X163890017Y-66915017D01*
X163858777Y-66940654D01*
X163823138Y-66959704D01*
X163784468Y-66971435D01*
X163738112Y-66976000D01*
X162661888Y-66976000D01*
X162615532Y-66971435D01*
X162576862Y-66959704D01*
X162541223Y-66940654D01*
X162509983Y-66915017D01*
X162484346Y-66883777D01*
X162465296Y-66848138D01*
X162453565Y-66809468D01*
X162449000Y-66763112D01*
X162449000Y-66111888D01*
X162453565Y-66065532D01*
X162465296Y-66026862D01*
X162484346Y-65991223D01*
X162509983Y-65959983D01*
X162541223Y-65934346D01*
X162576862Y-65915296D01*
X162615532Y-65903565D01*
X162661888Y-65899000D01*
X163738112Y-65899000D01*
X163784468Y-65903565D01*
X163784468Y-65903565D01*
G37*
G36*
X168584468Y-65528565D02*
G01*
X168623138Y-65540296D01*
X168658777Y-65559346D01*
X168690017Y-65584983D01*
X168715654Y-65616223D01*
X168734704Y-65651862D01*
X168746435Y-65690532D01*
X168751000Y-65736888D01*
X168751000Y-66388112D01*
X168746435Y-66434468D01*
X168734704Y-66473138D01*
X168715654Y-66508777D01*
X168690017Y-66540017D01*
X168658777Y-66565654D01*
X168623138Y-66584704D01*
X168584468Y-66596435D01*
X168538112Y-66601000D01*
X167461888Y-66601000D01*
X167415532Y-66596435D01*
X167376862Y-66584704D01*
X167341223Y-66565654D01*
X167309983Y-66540017D01*
X167284346Y-66508777D01*
X167265296Y-66473138D01*
X167253565Y-66434468D01*
X167249000Y-66388112D01*
X167249000Y-65736888D01*
X167253565Y-65690532D01*
X167265296Y-65651862D01*
X167284346Y-65616223D01*
X167309983Y-65584983D01*
X167341223Y-65559346D01*
X167376862Y-65540296D01*
X167415532Y-65528565D01*
X167461888Y-65524000D01*
X168538112Y-65524000D01*
X168584468Y-65528565D01*
X168584468Y-65528565D01*
G37*
G36*
X143584468Y-64903565D02*
G01*
X143623138Y-64915296D01*
X143658777Y-64934346D01*
X143690017Y-64959983D01*
X143715654Y-64991223D01*
X143734704Y-65026862D01*
X143746435Y-65065532D01*
X143751000Y-65111888D01*
X143751000Y-65763112D01*
X143746435Y-65809468D01*
X143734704Y-65848138D01*
X143715654Y-65883777D01*
X143690017Y-65915017D01*
X143658777Y-65940654D01*
X143623138Y-65959704D01*
X143584468Y-65971435D01*
X143538112Y-65976000D01*
X142461888Y-65976000D01*
X142415532Y-65971435D01*
X142376862Y-65959704D01*
X142341223Y-65940654D01*
X142309983Y-65915017D01*
X142284346Y-65883777D01*
X142265296Y-65848138D01*
X142253565Y-65809468D01*
X142249000Y-65763112D01*
X142249000Y-65111888D01*
X142253565Y-65065532D01*
X142265296Y-65026862D01*
X142284346Y-64991223D01*
X142309983Y-64959983D01*
X142341223Y-64934346D01*
X142376862Y-64915296D01*
X142415532Y-64903565D01*
X142461888Y-64899000D01*
X143538112Y-64899000D01*
X143584468Y-64903565D01*
X143584468Y-64903565D01*
G37*
G36*
X163784468Y-64028565D02*
G01*
X163823138Y-64040296D01*
X163858777Y-64059346D01*
X163890017Y-64084983D01*
X163915654Y-64116223D01*
X163934704Y-64151862D01*
X163946435Y-64190532D01*
X163951000Y-64236888D01*
X163951000Y-64888112D01*
X163946435Y-64934468D01*
X163934704Y-64973138D01*
X163915654Y-65008777D01*
X163890017Y-65040017D01*
X163858777Y-65065654D01*
X163823138Y-65084704D01*
X163784468Y-65096435D01*
X163738112Y-65101000D01*
X162661888Y-65101000D01*
X162615532Y-65096435D01*
X162576862Y-65084704D01*
X162541223Y-65065654D01*
X162509983Y-65040017D01*
X162484346Y-65008777D01*
X162465296Y-64973138D01*
X162453565Y-64934468D01*
X162449000Y-64888112D01*
X162449000Y-64236888D01*
X162453565Y-64190532D01*
X162465296Y-64151862D01*
X162484346Y-64116223D01*
X162509983Y-64084983D01*
X162541223Y-64059346D01*
X162576862Y-64040296D01*
X162615532Y-64028565D01*
X162661888Y-64024000D01*
X163738112Y-64024000D01*
X163784468Y-64028565D01*
X163784468Y-64028565D01*
G37*
G36*
X176650870Y-64650870D02*
G01*
X173549130Y-64650870D01*
X173549130Y-61549130D01*
X176650870Y-61549130D01*
X176650870Y-64650870D01*
X176650870Y-64650870D01*
G37*
G36*
X149418604Y-62578347D02*
G01*
X149455144Y-62589432D01*
X149488821Y-62607433D01*
X149518341Y-62631659D01*
X149542567Y-62661179D01*
X149560568Y-62694856D01*
X149571653Y-62731396D01*
X149576000Y-62775538D01*
X149576000Y-64224462D01*
X149571653Y-64268604D01*
X149560568Y-64305144D01*
X149542567Y-64338821D01*
X149518341Y-64368341D01*
X149488821Y-64392567D01*
X149455144Y-64410568D01*
X149418604Y-64421653D01*
X149374462Y-64426000D01*
X148425538Y-64426000D01*
X148381396Y-64421653D01*
X148344856Y-64410568D01*
X148311179Y-64392567D01*
X148281659Y-64368341D01*
X148257433Y-64338821D01*
X148239432Y-64305144D01*
X148228347Y-64268604D01*
X148224000Y-64224462D01*
X148224000Y-62775538D01*
X148228347Y-62731396D01*
X148239432Y-62694856D01*
X148257433Y-62661179D01*
X148281659Y-62631659D01*
X148311179Y-62607433D01*
X148344856Y-62589432D01*
X148381396Y-62578347D01*
X148425538Y-62574000D01*
X149374462Y-62574000D01*
X149418604Y-62578347D01*
X149418604Y-62578347D01*
G37*
G36*
X146618604Y-62578347D02*
G01*
X146655144Y-62589432D01*
X146688821Y-62607433D01*
X146718341Y-62631659D01*
X146742567Y-62661179D01*
X146760568Y-62694856D01*
X146771653Y-62731396D01*
X146776000Y-62775538D01*
X146776000Y-64224462D01*
X146771653Y-64268604D01*
X146760568Y-64305144D01*
X146742567Y-64338821D01*
X146718341Y-64368341D01*
X146688821Y-64392567D01*
X146655144Y-64410568D01*
X146618604Y-64421653D01*
X146574462Y-64426000D01*
X145625538Y-64426000D01*
X145581396Y-64421653D01*
X145544856Y-64410568D01*
X145511179Y-64392567D01*
X145481659Y-64368341D01*
X145457433Y-64338821D01*
X145439432Y-64305144D01*
X145428347Y-64268604D01*
X145424000Y-64224462D01*
X145424000Y-62775538D01*
X145428347Y-62731396D01*
X145439432Y-62694856D01*
X145457433Y-62661179D01*
X145481659Y-62631659D01*
X145511179Y-62607433D01*
X145544856Y-62589432D01*
X145581396Y-62578347D01*
X145625538Y-62574000D01*
X146574462Y-62574000D01*
X146618604Y-62578347D01*
X146618604Y-62578347D01*
G37*
G36*
X143584468Y-63028565D02*
G01*
X143623138Y-63040296D01*
X143658777Y-63059346D01*
X143690017Y-63084983D01*
X143715654Y-63116223D01*
X143734704Y-63151862D01*
X143746435Y-63190532D01*
X143751000Y-63236888D01*
X143751000Y-63888112D01*
X143746435Y-63934468D01*
X143734704Y-63973138D01*
X143715654Y-64008777D01*
X143690017Y-64040017D01*
X143658777Y-64065654D01*
X143623138Y-64084704D01*
X143584468Y-64096435D01*
X143538112Y-64101000D01*
X142461888Y-64101000D01*
X142415532Y-64096435D01*
X142376862Y-64084704D01*
X142341223Y-64065654D01*
X142309983Y-64040017D01*
X142284346Y-64008777D01*
X142265296Y-63973138D01*
X142253565Y-63934468D01*
X142249000Y-63888112D01*
X142249000Y-63236888D01*
X142253565Y-63190532D01*
X142265296Y-63151862D01*
X142284346Y-63116223D01*
X142309983Y-63084983D01*
X142341223Y-63059346D01*
X142376862Y-63040296D01*
X142415532Y-63028565D01*
X142461888Y-63024000D01*
X143538112Y-63024000D01*
X143584468Y-63028565D01*
X143584468Y-63028565D01*
G37*
G36*
X153834468Y-61653565D02*
G01*
X153873138Y-61665296D01*
X153908777Y-61684346D01*
X153940017Y-61709983D01*
X153965654Y-61741223D01*
X153984704Y-61776862D01*
X153996435Y-61815532D01*
X154001000Y-61861888D01*
X154001000Y-62938112D01*
X153996435Y-62984468D01*
X153984704Y-63023138D01*
X153965654Y-63058777D01*
X153940017Y-63090017D01*
X153908777Y-63115654D01*
X153873138Y-63134704D01*
X153834468Y-63146435D01*
X153788112Y-63151000D01*
X153136888Y-63151000D01*
X153090532Y-63146435D01*
X153051862Y-63134704D01*
X153016223Y-63115654D01*
X152984983Y-63090017D01*
X152959346Y-63058777D01*
X152940296Y-63023138D01*
X152928565Y-62984468D01*
X152924000Y-62938112D01*
X152924000Y-61861888D01*
X152928565Y-61815532D01*
X152940296Y-61776862D01*
X152959346Y-61741223D01*
X152984983Y-61709983D01*
X153016223Y-61684346D01*
X153051862Y-61665296D01*
X153090532Y-61653565D01*
X153136888Y-61649000D01*
X153788112Y-61649000D01*
X153834468Y-61653565D01*
X153834468Y-61653565D01*
G37*
G36*
X155709468Y-61653565D02*
G01*
X155748138Y-61665296D01*
X155783777Y-61684346D01*
X155815017Y-61709983D01*
X155840654Y-61741223D01*
X155859704Y-61776862D01*
X155871435Y-61815532D01*
X155876000Y-61861888D01*
X155876000Y-62938112D01*
X155871435Y-62984468D01*
X155859704Y-63023138D01*
X155840654Y-63058777D01*
X155815017Y-63090017D01*
X155783777Y-63115654D01*
X155748138Y-63134704D01*
X155709468Y-63146435D01*
X155663112Y-63151000D01*
X155011888Y-63151000D01*
X154965532Y-63146435D01*
X154926862Y-63134704D01*
X154891223Y-63115654D01*
X154859983Y-63090017D01*
X154834346Y-63058777D01*
X154815296Y-63023138D01*
X154803565Y-62984468D01*
X154799000Y-62938112D01*
X154799000Y-61861888D01*
X154803565Y-61815532D01*
X154815296Y-61776862D01*
X154834346Y-61741223D01*
X154859983Y-61709983D01*
X154891223Y-61684346D01*
X154926862Y-61665296D01*
X154965532Y-61653565D01*
X155011888Y-61649000D01*
X155663112Y-61649000D01*
X155709468Y-61653565D01*
X155709468Y-61653565D01*
G37*
G36*
X167879393Y-60149304D02*
G01*
X168116101Y-60247352D01*
X168116103Y-60247353D01*
X168329135Y-60389696D01*
X168510304Y-60570865D01*
X168652647Y-60783897D01*
X168652648Y-60783899D01*
X168750696Y-61020607D01*
X168800680Y-61271893D01*
X168800680Y-61528107D01*
X168750696Y-61779393D01*
X168716525Y-61861888D01*
X168652647Y-62016103D01*
X168510304Y-62229135D01*
X168329135Y-62410304D01*
X168116103Y-62552647D01*
X168116102Y-62552648D01*
X168116101Y-62552648D01*
X167879393Y-62650696D01*
X167628107Y-62700680D01*
X167371893Y-62700680D01*
X167120607Y-62650696D01*
X166883899Y-62552648D01*
X166883898Y-62552648D01*
X166883897Y-62552647D01*
X166670865Y-62410304D01*
X166489696Y-62229135D01*
X166347353Y-62016103D01*
X166283475Y-61861888D01*
X166249304Y-61779393D01*
X166199320Y-61528107D01*
X166199320Y-61271893D01*
X166249304Y-61020607D01*
X166347352Y-60783899D01*
X166347353Y-60783897D01*
X166489696Y-60570865D01*
X166670865Y-60389696D01*
X166883897Y-60247353D01*
X166883899Y-60247352D01*
X167120607Y-60149304D01*
X167371893Y-60099320D01*
X167628107Y-60099320D01*
X167879393Y-60149304D01*
X167879393Y-60149304D01*
G37*
M02*
