G04 #@! TF.GenerationSoftware,KiCad,Pcbnew,(5.1.0)-1*
G04 #@! TF.CreationDate,2019-05-18T16:03:49-06:00*
G04 #@! TF.ProjectId,Tension,54656e73-696f-46e2-9e6b-696361645f70,rev?*
G04 #@! TF.SameCoordinates,Original*
G04 #@! TF.FileFunction,Copper,L2,Bot*
G04 #@! TF.FilePolarity,Positive*
%FSLAX46Y46*%
G04 Gerber Fmt 4.6, Leading zero omitted, Abs format (unit mm)*
G04 Created by KiCad (PCBNEW (5.1.0)-1) date 2019-05-18 16:03:49*
%MOMM*%
%LPD*%
G04 APERTURE LIST*
%ADD10C,2.999740*%
%ADD11R,2.999740X2.999740*%
%ADD12C,2.499360*%
%ADD13C,0.800000*%
%ADD14C,0.250000*%
%ADD15C,0.254000*%
G04 APERTURE END LIST*
D10*
X175100000Y-74530000D03*
X175100000Y-70720000D03*
X175100000Y-66910000D03*
D11*
X175100000Y-63100000D03*
D12*
X167500000Y-75600000D03*
X167500000Y-61400000D03*
D13*
X158750000Y-69500000D03*
X150500000Y-68500000D03*
X157000000Y-62500000D03*
X154250000Y-73000000D03*
X148750000Y-74500000D03*
X150250000Y-63500000D03*
X155000000Y-70500000D03*
X154750000Y-66250000D03*
X171500000Y-65750000D03*
X171500000Y-68250000D03*
X160000000Y-71500000D03*
X165250000Y-68000000D03*
X165750000Y-71000000D03*
X147500000Y-70750000D03*
X143000000Y-61000000D03*
X150750000Y-60750000D03*
D14*
X153500000Y-71500000D02*
X150500000Y-68500000D01*
X155750000Y-71500000D02*
X153500000Y-71500000D01*
X157750000Y-69500000D02*
X157250000Y-70000000D01*
X158750000Y-69500000D02*
X157750000Y-69500000D01*
X157250000Y-70000000D02*
X155750000Y-71500000D01*
D15*
G36*
X166186622Y-60266230D02*
G01*
X165896685Y-60392104D01*
X165730861Y-60724262D01*
X165633025Y-61082387D01*
X165606935Y-61452719D01*
X165653595Y-61821025D01*
X165771211Y-62173151D01*
X165896685Y-62407896D01*
X166186623Y-62533771D01*
X167320395Y-61400000D01*
X167306252Y-61385858D01*
X167485858Y-61206252D01*
X167500000Y-61220395D01*
X167514142Y-61206252D01*
X167693748Y-61385858D01*
X167679605Y-61400000D01*
X168813377Y-62533771D01*
X169103315Y-62407896D01*
X169269139Y-62075738D01*
X169366975Y-61717613D01*
X169375251Y-61600130D01*
X172962058Y-61600130D01*
X172962058Y-64599870D01*
X172974318Y-64724352D01*
X173010628Y-64844050D01*
X173069593Y-64954364D01*
X173148945Y-65051055D01*
X173245636Y-65130407D01*
X173355950Y-65189372D01*
X173475648Y-65225682D01*
X173600130Y-65237942D01*
X173759747Y-65237942D01*
X173739100Y-65251738D01*
X173441738Y-65549100D01*
X173208103Y-65898760D01*
X173047172Y-66287281D01*
X172965130Y-66699734D01*
X172965130Y-67120266D01*
X173047172Y-67532719D01*
X173208103Y-67921240D01*
X173441738Y-68270900D01*
X173739100Y-68568262D01*
X174088760Y-68801897D01*
X174120393Y-68815000D01*
X174088760Y-68828103D01*
X173739100Y-69061738D01*
X173441738Y-69359100D01*
X173208103Y-69708760D01*
X173047172Y-70097281D01*
X172965130Y-70509734D01*
X172965130Y-70930266D01*
X173047172Y-71342719D01*
X173208103Y-71731240D01*
X173441738Y-72080900D01*
X173739100Y-72378262D01*
X174088760Y-72611897D01*
X174124218Y-72626584D01*
X173944040Y-72722892D01*
X173788044Y-73038439D01*
X175100000Y-74350395D01*
X176411956Y-73038439D01*
X176255960Y-72722892D01*
X176070824Y-72628638D01*
X176111240Y-72611897D01*
X176460900Y-72378262D01*
X176758262Y-72080900D01*
X176991897Y-71731240D01*
X177152828Y-71342719D01*
X177234870Y-70930266D01*
X177234870Y-70509734D01*
X177152828Y-70097281D01*
X176991897Y-69708760D01*
X176758262Y-69359100D01*
X176460900Y-69061738D01*
X176111240Y-68828103D01*
X176079607Y-68815000D01*
X176111240Y-68801897D01*
X176460900Y-68568262D01*
X176758262Y-68270900D01*
X176991897Y-67921240D01*
X177152828Y-67532719D01*
X177234870Y-67120266D01*
X177234870Y-66699734D01*
X177152828Y-66287281D01*
X176991897Y-65898760D01*
X176758262Y-65549100D01*
X176460900Y-65251738D01*
X176440253Y-65237942D01*
X176599870Y-65237942D01*
X176724352Y-65225682D01*
X176844050Y-65189372D01*
X176954364Y-65130407D01*
X177051055Y-65051055D01*
X177130407Y-64954364D01*
X177189372Y-64844050D01*
X177225682Y-64724352D01*
X177237942Y-64599870D01*
X177237942Y-61600130D01*
X177225682Y-61475648D01*
X177189372Y-61355950D01*
X177130407Y-61245636D01*
X177051055Y-61148945D01*
X176954364Y-61069593D01*
X176844050Y-61010628D01*
X176724352Y-60974318D01*
X176599870Y-60962058D01*
X173600130Y-60962058D01*
X173475648Y-60974318D01*
X173355950Y-61010628D01*
X173245636Y-61069593D01*
X173148945Y-61148945D01*
X173069593Y-61245636D01*
X173010628Y-61355950D01*
X172974318Y-61475648D01*
X172962058Y-61600130D01*
X169375251Y-61600130D01*
X169393065Y-61347281D01*
X169346405Y-60978975D01*
X169228789Y-60626849D01*
X169103315Y-60392104D01*
X168813378Y-60266230D01*
X168869608Y-60210000D01*
X179290001Y-60210000D01*
X179290000Y-76790000D01*
X168971552Y-76790000D01*
X169170182Y-76492731D01*
X169312253Y-76149741D01*
X169337749Y-76021561D01*
X173788044Y-76021561D01*
X173944040Y-76337108D01*
X174318800Y-76527901D01*
X174723582Y-76641917D01*
X175142829Y-76674772D01*
X175560431Y-76625205D01*
X175960339Y-76495121D01*
X176255960Y-76337108D01*
X176411956Y-76021561D01*
X175100000Y-74709605D01*
X173788044Y-76021561D01*
X169337749Y-76021561D01*
X169384680Y-75785625D01*
X169384680Y-75414375D01*
X169312253Y-75050259D01*
X169170182Y-74707269D01*
X169080352Y-74572829D01*
X172955228Y-74572829D01*
X173004795Y-74990431D01*
X173134879Y-75390339D01*
X173292892Y-75685960D01*
X173608439Y-75841956D01*
X174920395Y-74530000D01*
X175279605Y-74530000D01*
X176591561Y-75841956D01*
X176907108Y-75685960D01*
X177097901Y-75311200D01*
X177211917Y-74906418D01*
X177244772Y-74487171D01*
X177195205Y-74069569D01*
X177065121Y-73669661D01*
X176907108Y-73374040D01*
X176591561Y-73218044D01*
X175279605Y-74530000D01*
X174920395Y-74530000D01*
X173608439Y-73218044D01*
X173292892Y-73374040D01*
X173102099Y-73748800D01*
X172988083Y-74153582D01*
X172955228Y-74572829D01*
X169080352Y-74572829D01*
X168963926Y-74398587D01*
X168701413Y-74136074D01*
X168392731Y-73929818D01*
X168049741Y-73787747D01*
X167685625Y-73715320D01*
X167314375Y-73715320D01*
X166950259Y-73787747D01*
X166607269Y-73929818D01*
X166298587Y-74136074D01*
X166036074Y-74398587D01*
X165829818Y-74707269D01*
X165687747Y-75050259D01*
X165615320Y-75414375D01*
X165615320Y-75785625D01*
X165687747Y-76149741D01*
X165829818Y-76492731D01*
X166028448Y-76790000D01*
X140710000Y-76790000D01*
X140710000Y-68398061D01*
X149465000Y-68398061D01*
X149465000Y-68601939D01*
X149504774Y-68801898D01*
X149582795Y-68990256D01*
X149696063Y-69159774D01*
X149840226Y-69303937D01*
X150009744Y-69417205D01*
X150198102Y-69495226D01*
X150398061Y-69535000D01*
X150460199Y-69535000D01*
X152936201Y-72011003D01*
X152959999Y-72040001D01*
X153075724Y-72134974D01*
X153207753Y-72205546D01*
X153351014Y-72249003D01*
X153462667Y-72260000D01*
X153462675Y-72260000D01*
X153500000Y-72263676D01*
X153537325Y-72260000D01*
X155712678Y-72260000D01*
X155750000Y-72263676D01*
X155787322Y-72260000D01*
X155787333Y-72260000D01*
X155898986Y-72249003D01*
X156042247Y-72205546D01*
X156174276Y-72134974D01*
X156290001Y-72040001D01*
X156313804Y-72010997D01*
X157813799Y-70511003D01*
X157813804Y-70510997D01*
X158055545Y-70269256D01*
X158090226Y-70303937D01*
X158259744Y-70417205D01*
X158448102Y-70495226D01*
X158648061Y-70535000D01*
X158851939Y-70535000D01*
X159051898Y-70495226D01*
X159240256Y-70417205D01*
X159409774Y-70303937D01*
X159553937Y-70159774D01*
X159667205Y-69990256D01*
X159745226Y-69801898D01*
X159785000Y-69601939D01*
X159785000Y-69398061D01*
X159745226Y-69198102D01*
X159667205Y-69009744D01*
X159553937Y-68840226D01*
X159409774Y-68696063D01*
X159240256Y-68582795D01*
X159051898Y-68504774D01*
X158851939Y-68465000D01*
X158648061Y-68465000D01*
X158448102Y-68504774D01*
X158259744Y-68582795D01*
X158090226Y-68696063D01*
X158046289Y-68740000D01*
X157787325Y-68740000D01*
X157750000Y-68736324D01*
X157712675Y-68740000D01*
X157712667Y-68740000D01*
X157601014Y-68750997D01*
X157457753Y-68794454D01*
X157325724Y-68865026D01*
X157209999Y-68959999D01*
X157186196Y-68989003D01*
X156739003Y-69436196D01*
X156738997Y-69436201D01*
X155435199Y-70740000D01*
X153814802Y-70740000D01*
X151535000Y-68460199D01*
X151535000Y-68398061D01*
X151495226Y-68198102D01*
X151417205Y-68009744D01*
X151303937Y-67840226D01*
X151159774Y-67696063D01*
X150990256Y-67582795D01*
X150801898Y-67504774D01*
X150601939Y-67465000D01*
X150398061Y-67465000D01*
X150198102Y-67504774D01*
X150009744Y-67582795D01*
X149840226Y-67696063D01*
X149696063Y-67840226D01*
X149582795Y-68009744D01*
X149504774Y-68198102D01*
X149465000Y-68398061D01*
X140710000Y-68398061D01*
X140710000Y-62713377D01*
X166366229Y-62713377D01*
X166492104Y-63003315D01*
X166824262Y-63169139D01*
X167182387Y-63266975D01*
X167552719Y-63293065D01*
X167921025Y-63246405D01*
X168273151Y-63128789D01*
X168507896Y-63003315D01*
X168633771Y-62713377D01*
X167500000Y-61579605D01*
X166366229Y-62713377D01*
X140710000Y-62713377D01*
X140710000Y-60210000D01*
X166130392Y-60210000D01*
X166186622Y-60266230D01*
X166186622Y-60266230D01*
G37*
X166186622Y-60266230D02*
X165896685Y-60392104D01*
X165730861Y-60724262D01*
X165633025Y-61082387D01*
X165606935Y-61452719D01*
X165653595Y-61821025D01*
X165771211Y-62173151D01*
X165896685Y-62407896D01*
X166186623Y-62533771D01*
X167320395Y-61400000D01*
X167306252Y-61385858D01*
X167485858Y-61206252D01*
X167500000Y-61220395D01*
X167514142Y-61206252D01*
X167693748Y-61385858D01*
X167679605Y-61400000D01*
X168813377Y-62533771D01*
X169103315Y-62407896D01*
X169269139Y-62075738D01*
X169366975Y-61717613D01*
X169375251Y-61600130D01*
X172962058Y-61600130D01*
X172962058Y-64599870D01*
X172974318Y-64724352D01*
X173010628Y-64844050D01*
X173069593Y-64954364D01*
X173148945Y-65051055D01*
X173245636Y-65130407D01*
X173355950Y-65189372D01*
X173475648Y-65225682D01*
X173600130Y-65237942D01*
X173759747Y-65237942D01*
X173739100Y-65251738D01*
X173441738Y-65549100D01*
X173208103Y-65898760D01*
X173047172Y-66287281D01*
X172965130Y-66699734D01*
X172965130Y-67120266D01*
X173047172Y-67532719D01*
X173208103Y-67921240D01*
X173441738Y-68270900D01*
X173739100Y-68568262D01*
X174088760Y-68801897D01*
X174120393Y-68815000D01*
X174088760Y-68828103D01*
X173739100Y-69061738D01*
X173441738Y-69359100D01*
X173208103Y-69708760D01*
X173047172Y-70097281D01*
X172965130Y-70509734D01*
X172965130Y-70930266D01*
X173047172Y-71342719D01*
X173208103Y-71731240D01*
X173441738Y-72080900D01*
X173739100Y-72378262D01*
X174088760Y-72611897D01*
X174124218Y-72626584D01*
X173944040Y-72722892D01*
X173788044Y-73038439D01*
X175100000Y-74350395D01*
X176411956Y-73038439D01*
X176255960Y-72722892D01*
X176070824Y-72628638D01*
X176111240Y-72611897D01*
X176460900Y-72378262D01*
X176758262Y-72080900D01*
X176991897Y-71731240D01*
X177152828Y-71342719D01*
X177234870Y-70930266D01*
X177234870Y-70509734D01*
X177152828Y-70097281D01*
X176991897Y-69708760D01*
X176758262Y-69359100D01*
X176460900Y-69061738D01*
X176111240Y-68828103D01*
X176079607Y-68815000D01*
X176111240Y-68801897D01*
X176460900Y-68568262D01*
X176758262Y-68270900D01*
X176991897Y-67921240D01*
X177152828Y-67532719D01*
X177234870Y-67120266D01*
X177234870Y-66699734D01*
X177152828Y-66287281D01*
X176991897Y-65898760D01*
X176758262Y-65549100D01*
X176460900Y-65251738D01*
X176440253Y-65237942D01*
X176599870Y-65237942D01*
X176724352Y-65225682D01*
X176844050Y-65189372D01*
X176954364Y-65130407D01*
X177051055Y-65051055D01*
X177130407Y-64954364D01*
X177189372Y-64844050D01*
X177225682Y-64724352D01*
X177237942Y-64599870D01*
X177237942Y-61600130D01*
X177225682Y-61475648D01*
X177189372Y-61355950D01*
X177130407Y-61245636D01*
X177051055Y-61148945D01*
X176954364Y-61069593D01*
X176844050Y-61010628D01*
X176724352Y-60974318D01*
X176599870Y-60962058D01*
X173600130Y-60962058D01*
X173475648Y-60974318D01*
X173355950Y-61010628D01*
X173245636Y-61069593D01*
X173148945Y-61148945D01*
X173069593Y-61245636D01*
X173010628Y-61355950D01*
X172974318Y-61475648D01*
X172962058Y-61600130D01*
X169375251Y-61600130D01*
X169393065Y-61347281D01*
X169346405Y-60978975D01*
X169228789Y-60626849D01*
X169103315Y-60392104D01*
X168813378Y-60266230D01*
X168869608Y-60210000D01*
X179290001Y-60210000D01*
X179290000Y-76790000D01*
X168971552Y-76790000D01*
X169170182Y-76492731D01*
X169312253Y-76149741D01*
X169337749Y-76021561D01*
X173788044Y-76021561D01*
X173944040Y-76337108D01*
X174318800Y-76527901D01*
X174723582Y-76641917D01*
X175142829Y-76674772D01*
X175560431Y-76625205D01*
X175960339Y-76495121D01*
X176255960Y-76337108D01*
X176411956Y-76021561D01*
X175100000Y-74709605D01*
X173788044Y-76021561D01*
X169337749Y-76021561D01*
X169384680Y-75785625D01*
X169384680Y-75414375D01*
X169312253Y-75050259D01*
X169170182Y-74707269D01*
X169080352Y-74572829D01*
X172955228Y-74572829D01*
X173004795Y-74990431D01*
X173134879Y-75390339D01*
X173292892Y-75685960D01*
X173608439Y-75841956D01*
X174920395Y-74530000D01*
X175279605Y-74530000D01*
X176591561Y-75841956D01*
X176907108Y-75685960D01*
X177097901Y-75311200D01*
X177211917Y-74906418D01*
X177244772Y-74487171D01*
X177195205Y-74069569D01*
X177065121Y-73669661D01*
X176907108Y-73374040D01*
X176591561Y-73218044D01*
X175279605Y-74530000D01*
X174920395Y-74530000D01*
X173608439Y-73218044D01*
X173292892Y-73374040D01*
X173102099Y-73748800D01*
X172988083Y-74153582D01*
X172955228Y-74572829D01*
X169080352Y-74572829D01*
X168963926Y-74398587D01*
X168701413Y-74136074D01*
X168392731Y-73929818D01*
X168049741Y-73787747D01*
X167685625Y-73715320D01*
X167314375Y-73715320D01*
X166950259Y-73787747D01*
X166607269Y-73929818D01*
X166298587Y-74136074D01*
X166036074Y-74398587D01*
X165829818Y-74707269D01*
X165687747Y-75050259D01*
X165615320Y-75414375D01*
X165615320Y-75785625D01*
X165687747Y-76149741D01*
X165829818Y-76492731D01*
X166028448Y-76790000D01*
X140710000Y-76790000D01*
X140710000Y-68398061D01*
X149465000Y-68398061D01*
X149465000Y-68601939D01*
X149504774Y-68801898D01*
X149582795Y-68990256D01*
X149696063Y-69159774D01*
X149840226Y-69303937D01*
X150009744Y-69417205D01*
X150198102Y-69495226D01*
X150398061Y-69535000D01*
X150460199Y-69535000D01*
X152936201Y-72011003D01*
X152959999Y-72040001D01*
X153075724Y-72134974D01*
X153207753Y-72205546D01*
X153351014Y-72249003D01*
X153462667Y-72260000D01*
X153462675Y-72260000D01*
X153500000Y-72263676D01*
X153537325Y-72260000D01*
X155712678Y-72260000D01*
X155750000Y-72263676D01*
X155787322Y-72260000D01*
X155787333Y-72260000D01*
X155898986Y-72249003D01*
X156042247Y-72205546D01*
X156174276Y-72134974D01*
X156290001Y-72040001D01*
X156313804Y-72010997D01*
X157813799Y-70511003D01*
X157813804Y-70510997D01*
X158055545Y-70269256D01*
X158090226Y-70303937D01*
X158259744Y-70417205D01*
X158448102Y-70495226D01*
X158648061Y-70535000D01*
X158851939Y-70535000D01*
X159051898Y-70495226D01*
X159240256Y-70417205D01*
X159409774Y-70303937D01*
X159553937Y-70159774D01*
X159667205Y-69990256D01*
X159745226Y-69801898D01*
X159785000Y-69601939D01*
X159785000Y-69398061D01*
X159745226Y-69198102D01*
X159667205Y-69009744D01*
X159553937Y-68840226D01*
X159409774Y-68696063D01*
X159240256Y-68582795D01*
X159051898Y-68504774D01*
X158851939Y-68465000D01*
X158648061Y-68465000D01*
X158448102Y-68504774D01*
X158259744Y-68582795D01*
X158090226Y-68696063D01*
X158046289Y-68740000D01*
X157787325Y-68740000D01*
X157750000Y-68736324D01*
X157712675Y-68740000D01*
X157712667Y-68740000D01*
X157601014Y-68750997D01*
X157457753Y-68794454D01*
X157325724Y-68865026D01*
X157209999Y-68959999D01*
X157186196Y-68989003D01*
X156739003Y-69436196D01*
X156738997Y-69436201D01*
X155435199Y-70740000D01*
X153814802Y-70740000D01*
X151535000Y-68460199D01*
X151535000Y-68398061D01*
X151495226Y-68198102D01*
X151417205Y-68009744D01*
X151303937Y-67840226D01*
X151159774Y-67696063D01*
X150990256Y-67582795D01*
X150801898Y-67504774D01*
X150601939Y-67465000D01*
X150398061Y-67465000D01*
X150198102Y-67504774D01*
X150009744Y-67582795D01*
X149840226Y-67696063D01*
X149696063Y-67840226D01*
X149582795Y-68009744D01*
X149504774Y-68198102D01*
X149465000Y-68398061D01*
X140710000Y-68398061D01*
X140710000Y-62713377D01*
X166366229Y-62713377D01*
X166492104Y-63003315D01*
X166824262Y-63169139D01*
X167182387Y-63266975D01*
X167552719Y-63293065D01*
X167921025Y-63246405D01*
X168273151Y-63128789D01*
X168507896Y-63003315D01*
X168633771Y-62713377D01*
X167500000Y-61579605D01*
X166366229Y-62713377D01*
X140710000Y-62713377D01*
X140710000Y-60210000D01*
X166130392Y-60210000D01*
X166186622Y-60266230D01*
M02*
