M48
; DRILL file {KiCad (5.1.0)-1} date 2019-05-18 4:03:43 PM
; FORMAT={-:-/ absolute / inch / decimal}
; #@! TF.CreationDate,2019-05-18T16:03:43-06:00
; #@! TF.GenerationSoftware,Kicad,Pcbnew,(5.1.0)-1
; #@! TF.FileFunction,Plated,1,2,PTH
FMAT,2
INCH
T1C0.0157
T2C0.0394
T3C0.0472
%
G90
G05
T1
X5.6299Y-2.4016
X5.8071Y-2.7854
X5.8563Y-2.9331
X5.9154Y-2.5
X5.9252Y-2.6969
X5.935Y-2.3917
X6.0728Y-2.874
X6.0925Y-2.6083
X6.1024Y-2.7756
X6.1811Y-2.4606
X6.25Y-2.7362
X6.2992Y-2.815
X6.5059Y-2.6772
X6.5256Y-2.7953
X6.752Y-2.5886
X6.752Y-2.687
T2
X6.5945Y-2.9764
X6.5945Y-2.4173
T3
X6.8937Y-2.4843
X6.8937Y-2.6343
X6.8937Y-2.7843
X6.8937Y-2.9343
T0
M30
